# xmcd
#
# Track frame offsets: 
#        150
#        13852
#        25627
#        42692
#        53740
#        72852
#        90492
#        104220
#        116500
#        127070
#
# Disc length: 1953 seconds
#
# Revision: 0
# Processed by: cddbd v1.5.2PL0 Copyright (c) Steve Scherf et al.
# Submitted via: ExactAudioCopy v0.99pb4
#
DISCID=8a079f0a
DTITLE=Various Artist - Sims Records Compilation 15
DYEAR=2003
DGENRE=Country
TTITLE0=Joe Hampton - Dillingham
TTITLE1=Tony Douglas - I'm Happy
TTITLE2=Bob Mauldin - Cowboy Superhero
TTITLE3=Eric McMillan - Caller ID
TTITLE4=Jason Murphy - You Should Try To Get Over You
TTITLE5=Diane Dupre -  Don't Say Goodbye
TTITLE6=Dugg Collins - Bubbles In My Beer
TTITLE7=Steve Warren - Sonny Corvette
TTITLE8=Alina Tatum - Your Cheatin' Heart
TTITLE9=Dana Price - Heaven Help You
EXTD=
EXTT0=
EXTT1=
EXTT2=
EXTT3=
EXTT4=
EXTT5=
EXTT6=
EXTT7=
EXTT8=
EXTT9=
PLAYORDER=
